 <svg width="562" height="877" viewBox="0 0 562 877" fill="none" xmlns="http://www.w3.org/2000/svg">
        <path
            d="M58.5508 422.946C81.2637 389.46 103.399 356.345 132.758 328.142C147.826 313.668 176.424 289.275 193.163 277.386C240.667 243.647 294.4 218.864 346.58 193.531C419.931 157.921 493.936 123.936 569.583 93.4749C608.818 77.6761 648.367 62.6467 687.669 47.0224"
            stroke="#18181B" stroke-width="2" stroke-linecap="round" />
        <path
            d="M85.0864 461.644C120.839 432.825 153.956 400.744 190.497 372.9C225.006 346.604 262.588 325.035 300.526 304.158C345.147 279.603 390.132 257.782 437.888 239.974C561.392 193.918 688.104 155.036 813.974 116.036C848.623 105.3 883.67 96.8925 918.751 87.9317"
            stroke="#18181B" stroke-width="2" stroke-linecap="round" />
        <path
            d="M117.15 501.447C124.962 494.029 134.371 484.67 143.005 478.142C161.96 463.81 183.82 453.741 205.107 443.5C288.456 403.401 376.21 374.358 461.815 339.639C546.633 305.24 630.364 267.489 717.637 239.514C757.203 226.832 797.709 217.229 838.038 207.343"
            stroke="#18181B" stroke-width="2" stroke-linecap="round" />
        <path
            d="M156.954 529.089C180.071 514.123 202.537 497.547 226.17 483.503C264.537 460.704 306.241 446.545 349.039 434.552C411.47 417.057 474.087 407.001 538.72 402.362C635.492 395.416 732.798 395.9 829.758 393.601C845.788 393.221 861.809 393.093 877.842 393.093"
            stroke="#18181B" stroke-width="2" stroke-linecap="round" />
        <path
            d="M186.807 581.59C211.088 581.59 235.197 575.989 259.562 575.262C312.244 573.69 365.348 574.453 418 576.453C493.286 579.312 568.087 589.885 642.349 602.014C692.407 610.19 739.693 621.885 784.056 646.433C800.039 655.277 816.103 662.102 833.616 667.296"
            stroke="#18181B" stroke-width="2" stroke-linecap="round" />
        <path
            d="M210.026 610.907C243.02 613.26 275.722 625.312 306.855 635.58C364.973 654.748 422.894 675.808 478.082 702.388C505.894 715.783 532.563 731.29 559.259 746.736C577.94 757.545 612.128 779.859 630 792C675 822.569 742.48 888.734 748 897"
            stroke="#18181B" stroke-width="2" stroke-linecap="round" />
        <path
            d="M37.5432 379.825C54.7648 357.172 70.8195 333.669 87.9578 310.957C131.075 253.817 177.556 202.358 232.868 156.845C260.328 134.249 281.097 117.7 310.517 97.8785C342.596 76.2654 376.638 58.8647 410.966 41.2607C433.917 29.4907 456.328 17.3788 477.594 2.79614"
            stroke="#18181B" stroke-width="2" stroke-linecap="round" />
        <path
            d="M23.1697 344.444C37.4268 322.098 50.2941 298.917 63.7212 276.069C89.5338 232.145 116.511 189.774 148.177 149.774C184.433 103.976 222.007 59.0465 260.785 15.3678C269.833 5.17659 279.101 -7.20887 289.633 -16"
            stroke="#18181B" stroke-width="2" stroke-linecap="round" />
        <path
            d="M1.05664 296.901C30.6512 237.53 56.8406 177.201 81.1397 115.499C95.9397 77.9183 112.573 41.5111 135.947 8.32443"
            stroke="#18181B" stroke-width="2" stroke-linecap="round" />
</svg>